<svg id="Group_1" data-name="Group 1" xmlns="http://www.w3.org/2000/svg" width="1366" height="768" viewBox="0 0 1366 768">
  <g id="form-background" opacity="0.5">
    <g id="Component_1_1" data-name="Component 1 – 1" opacity="0.4">
      <rect id="Rectangle_1" data-name="Rectangle 1" width="1366" height="768" fill="#27224a"/>
    </g>
    <g id="Group_168" data-name="Group 168" transform="translate(53.005 83)">
      <path id="Path_9694" data-name="Path 9694" d="M293.709,254.609H220.278a4.773,4.773,0,0,1-4.778-4.778V176.378a4.773,4.773,0,0,1,4.778-4.778H293.73a4.773,4.773,0,0,1,4.778,4.778V249.83a4.8,4.8,0,0,1-4.8,4.779Z" transform="translate(902.469 208.304)" fill="#5c49db"/>
      <path id="Path_9693" data-name="Path 9693" d="M576.267,511.489H536.2a2.6,2.6,0,0,1-2.6-2.6V468.8a2.6,2.6,0,0,1,2.6-2.6h40.066a2.6,2.6,0,0,1,2.6,2.6v40.066a2.617,2.617,0,0,1-2.6,2.622Z" transform="translate(651.625 -24.008)" fill="#5c49db"/>
      <path id="Path_9681" data-name="Path 9681" d="M1798.88,341.794h-49.564a5.407,5.407,0,0,1-5.415-5.415V286.815a5.407,5.407,0,0,1,5.415-5.415h49.564a5.407,5.407,0,0,1,5.415,5.415v49.564a5.394,5.394,0,0,1-5.415,5.415Z" transform="translate(-1033.463 -42.095)" fill="#5c49db"/>
      <path id="Path_9690" data-name="Path 9690" d="M1808.34,352.19h-58.1a6.34,6.34,0,0,1-6.348-6.348V287.748a6.34,6.34,0,0,1,6.348-6.348h58.1a6.34,6.34,0,0,1,6.347,6.348v58.1a6.323,6.323,0,0,1-6.347,6.344Z" transform="translate(-1743.897 96.956)" fill="#5c49db"/>
      <path id="Path_9689" data-name="Path 9689" d="M2031.93,497.5H1886.8a8.4,8.4,0,0,1-8.4-8.4V451.8a8.4,8.4,0,0,1,8.4-8.4h145.124a8.4,8.4,0,0,1,8.4,8.4v37.3a8.427,8.427,0,0,1-8.4,8.4Z" transform="translate(-1842.07 -21.288)" fill="#5c49db"/>
      <g id="Group_1567" data-name="Group 1567" transform="translate(282.804 461.764)">
        <path id="Path_9684" data-name="Path 9684" d="M229.729,1363.16a22.229,22.229,0,1,1,22.229-22.229,22.229,22.229,0,0,1-22.229,22.229Zm0-33.652a11.425,11.425,0,1,0,11.425,11.425,11.425,11.425,0,0,0-11.425-11.425Z" transform="translate(-207.5 -1318.702)" fill="#5c49db"/>
      </g>
      <g id="Group_1572" data-name="Group 1572" transform="translate(26.229 43.962)">
        <path id="Path_9684-2" data-name="Path 9684" d="M229.729,1363.16a22.229,22.229,0,1,1,22.229-22.229,22.229,22.229,0,0,1-22.229,22.229Zm0-33.652a11.425,11.425,0,1,0,11.425,11.425,11.425,11.425,0,0,0-11.425-11.425Z" transform="translate(-207.5 -1318.702)" fill="#5c49db"/>
      </g>
      <g id="Group_1571" data-name="Group 1571" transform="translate(955.448 447.896)">
        <path id="Path_9684-3" data-name="Path 9684" d="M229.729,1363.16a22.229,22.229,0,1,1,22.229-22.229,22.229,22.229,0,0,1-22.229,22.229Zm0-33.652a11.425,11.425,0,1,0,11.425,11.425,11.425,11.425,0,0,0-11.425-11.425Z" transform="translate(-207.5 -1318.702)" fill="#5c49db"/>
      </g>
      <g id="Group_2734" data-name="Group 2734" transform="translate(771.181 403.785)">
        <path id="Path_9684-4" data-name="Path 9684" d="M229.729,1363.16a22.229,22.229,0,1,1,22.229-22.229,22.229,22.229,0,0,1-22.229,22.229Zm0-33.652a11.425,11.425,0,1,0,11.425,11.425,11.425,11.425,0,0,0-11.425-11.425Z" transform="translate(-207.5 -1318.702)" fill="#5c49db"/>
      </g>
      <g id="Group_2735" data-name="Group 2735" transform="translate(443.91 550.346)">
        <path id="Path_9684-5" data-name="Path 9684" d="M229.729,1363.16a22.229,22.229,0,1,1,22.229-22.229,22.229,22.229,0,0,1-22.229,22.229Zm0-33.652a11.425,11.425,0,1,0,11.425,11.425,11.425,11.425,0,0,0-11.425-11.425Z" transform="translate(-207.5 -1318.702)" fill="#5c49db"/>
      </g>
      <g id="Group_2736" data-name="Group 2736" transform="translate(824.54 557.46)">
        <path id="Path_9684-6" data-name="Path 9684" d="M229.729,1363.16a22.229,22.229,0,1,1,22.229-22.229,22.229,22.229,0,0,1-22.229,22.229Zm0-33.652a11.425,11.425,0,1,0,11.425,11.425,11.425,11.425,0,0,0-11.425-11.425Z" transform="translate(-207.5 -1318.702)" fill="#5c49db"/>
      </g>
      <circle id="Ellipse_67" data-name="Ellipse 67" cx="14.736" cy="14.736" r="14.736" transform="translate(290.416 0)" fill="#5c49db"/>
      <circle id="Ellipse_65" data-name="Ellipse 65" cx="14.736" cy="14.736" r="14.736" transform="translate(1021.137 99.683)" fill="#5c49db"/>
      <circle id="Ellipse_64" data-name="Ellipse 64" cx="14.736" cy="14.736" r="14.736" transform="translate(1230.904 256.575)" fill="#5c49db"/>
    </g>
  </g>
</svg>
