<svg xmlns="http://www.w3.org/2000/svg" width="190.17" height="58.012" viewBox="0 0 190.17 58.012">
  <g id="Group_3141" data-name="Group 3141" transform="translate(-2121 262)">
    <g id="Group_3140" data-name="Group 3140" transform="translate(1980.497 -305.572)">
      <path id="Path_12051" data-name="Path 12051" d="M301.751,96.265h9.227s8.3.2,7.5-7.422S307.9,80.421,302.925,82.88s-6.762,11.065-4.61,16.905,5.717,7.438,12.048,7.315a16.82,16.82,0,0,0,7.254-2.151l-1.475-3.381S304.327,107.991,301.751,96.265Zm9.6-10.372a4.674,4.674,0,0,1,2.7,3.627,2.558,2.558,0,0,1-2.4,3.012h-9.59S303.109,83.126,311.346,85.893Z" transform="translate(-53.174 -18.675)" fill="#292929"/>
      <path id="Path_12052" data-name="Path 12052" d="M377.2,96.265h9.227s8.3.2,7.5-7.422-10.573-8.422-15.553-5.963-6.762,11.065-4.61,16.905,5.717,7.438,12.049,7.315a16.816,16.816,0,0,0,7.253-2.151l-1.475-3.381S379.776,107.991,377.2,96.265Zm9.6-10.372a4.674,4.674,0,0,1,2.7,3.627,2.558,2.558,0,0,1-2.4,3.012h-9.59S378.558,83.126,386.8,85.893Z" transform="translate(-103.378 -18.675)" fill="#292929"/>
      <path id="Path_12053" data-name="Path 12053" d="M453.814,85.339s7.049-5.492,15.164-2.869l-.656,3.607s-4.1-1.721-9.754,1.557v19.1h-4.754Z" transform="translate(-157.242 -18.757)" fill="#292929"/>
      <g id="Group_3139" data-name="Group 3139" transform="translate(219.301 91.328)">
        <path id="Path_12054" data-name="Path 12054" d="M222.876,167.262h2.738a2.605,2.605,0,0,1,1.685.463,1.782,1.782,0,0,1,.562,1.456,2.111,2.111,0,0,1-.246,1.108,1.668,1.668,0,0,1-.725.627,1.7,1.7,0,0,1,1.2,1.778,1.985,1.985,0,0,1-.6,1.625,2.677,2.677,0,0,1-1.735.491h-2.88Zm2.706.741h-1.866v2.608h1.942a1.364,1.364,0,0,0,1.02-.333,1.392,1.392,0,0,0,.322-1,1.226,1.226,0,0,0-.344-.971A1.607,1.607,0,0,0,225.582,168Zm.087,3.339h-1.953v2.727h2.007a1.772,1.772,0,0,0,1.129-.311,1.337,1.337,0,0,0,.387-1.1,1.419,1.419,0,0,0-.158-.7.92.92,0,0,0-.42-.4A2.372,2.372,0,0,0,225.669,171.342Z" transform="translate(-222.876 -166.978)" fill="#868686"/>
        <path id="Path_12055" data-name="Path 12055" d="M245.768,178.082l.316-.033.022.644a15.651,15.651,0,0,1-2.128.174,1.917,1.917,0,0,1-1.669-.682,3.661,3.661,0,0,1-.491-2.122q0-2.869,2.28-2.869a2.087,2.087,0,0,1,1.648.617,2.87,2.87,0,0,1,.545,1.936l-.043.622h-3.6a2.236,2.236,0,0,0,.328,1.342,1.337,1.337,0,0,0,1.14.436Q244.927,178.148,245.768,178.082Zm-.295-2.367a2.374,2.374,0,0,0-.322-1.419,1.246,1.246,0,0,0-1.048-.414,1.342,1.342,0,0,0-1.091.436,2.2,2.2,0,0,0-.376,1.4Z" transform="translate(-235.48 -170.926)" fill="#868686"/>
        <path id="Path_12056" data-name="Path 12056" d="M270.593,174.473a10.2,10.2,0,0,1-2.018.229,3.59,3.59,0,0,1-1.445-.245,1.809,1.809,0,0,1-.851-.764,3.538,3.538,0,0,1-.415-1.189,10.177,10.177,0,0,1-.115-1.675,10.384,10.384,0,0,1,.115-1.685,3.6,3.6,0,0,1,.415-1.206,1.777,1.777,0,0,1,.846-.764,3.554,3.554,0,0,1,1.418-.24,10.476,10.476,0,0,1,2.051.24l-.033.709a11.338,11.338,0,0,0-1.964-.2,1.64,1.64,0,0,0-1.587.714,5.511,5.511,0,0,0-.387,2.439,10.74,10.74,0,0,0,.071,1.386,3.037,3.037,0,0,0,.278.944,1.229,1.229,0,0,0,.605.6,2.939,2.939,0,0,0,1.168.18,10.087,10.087,0,0,0,1.816-.2Z" transform="translate(-251.404 -166.761)" fill="#040505"/>
        <path id="Path_12057" data-name="Path 12057" d="M282.867,176.021a3.462,3.462,0,0,1,.534-2.16,2.774,2.774,0,0,1,3.606,0,3.487,3.487,0,0,1,.529,2.16,3.689,3.689,0,0,1-.5,2.171,2.823,2.823,0,0,1-3.666,0A3.689,3.689,0,0,1,282.867,176.021Zm.84-.017a3.474,3.474,0,0,0,.289,1.675,1.768,1.768,0,0,0,2.416.005,3.514,3.514,0,0,0,.283-1.675,3.07,3.07,0,0,0-.316-1.653,1.337,1.337,0,0,0-1.172-.453,1.353,1.353,0,0,0-1.178.453A3.016,3.016,0,0,0,283.707,176Z" transform="translate(-262.794 -170.926)" fill="#040505"/>
        <path id="Path_12058" data-name="Path 12058" d="M301.617,178.759H300.8V173.3h.807v.382a3.093,3.093,0,0,1,1.593-.491,1.639,1.639,0,0,1,1.418.556,4.031,4.031,0,0,1,.933-.387,3.632,3.632,0,0,1,1.009-.169,1.619,1.619,0,0,1,1.467.584,4.156,4.156,0,0,1,.376,2.1v2.88h-.818V175.9a3.775,3.775,0,0,0-.218-1.555.947.947,0,0,0-.928-.42,2.821,2.821,0,0,0-.742.1,3.745,3.745,0,0,0-.589.2l-.207.1a5.468,5.468,0,0,1,.142,1.593v2.836h-.818v-2.815a4.014,4.014,0,0,0-.213-1.6.944.944,0,0,0-.933-.42,2.6,2.6,0,0,0-.715.1,3.422,3.422,0,0,0-.562.2l-.185.1Z" transform="translate(-274.726 -170.926)" fill="#040505"/>
        <path id="Path_12059" data-name="Path 12059" d="M328.057,181.181V173.3h.807v.392a3.144,3.144,0,0,1,1.636-.5,1.719,1.719,0,0,1,1.506.66,3.858,3.858,0,0,1,.469,2.177,3.4,3.4,0,0,1-.551,2.176,2.258,2.258,0,0,1-1.828.66,5.8,5.8,0,0,1-1.222-.12v2.433Zm2.324-7.255a2.542,2.542,0,0,0-.7.109,3.672,3.672,0,0,0-.595.218l-.207.109v3.677a8.361,8.361,0,0,0,1.178.12,1.412,1.412,0,0,0,1.238-.5,2.9,2.9,0,0,0,.354-1.636,3.025,3.025,0,0,0-.322-1.615A1.064,1.064,0,0,0,330.381,173.926Z" transform="translate(-292.864 -170.926)" fill="#040505"/>
        <path id="Path_12060" data-name="Path 12060" d="M345.435,174.247v-7.833h.818v7.833Z" transform="translate(-304.427 -166.414)" fill="#040505"/>
        <path id="Path_12061" data-name="Path 12061" d="M352.77,167.949V167h.818v.949Zm0,6.688v-5.455h.818v5.455Z" transform="translate(-309.308 -166.804)" fill="#040505"/>
        <path id="Path_12062" data-name="Path 12062" d="M363.067,174.951v2.793q.032.4.632.48l-.032.643a1.762,1.762,0,0,1-1.3-.436,4.8,4.8,0,0,1-1.964.436,1.482,1.482,0,0,1-1.145-.425,1.739,1.739,0,0,1-.393-1.222,1.533,1.533,0,0,1,.4-1.173,2.14,2.14,0,0,1,1.265-.464l1.713-.164v-.469a1.1,1.1,0,0,0-.24-.8.884.884,0,0,0-.654-.24,15.7,15.7,0,0,0-1.811.109l-.338.033-.033-.622a11.008,11.008,0,0,1,2.128-.24,1.522,1.522,0,0,1,1.767,1.756Zm-3.36,2.226q0,1,.829,1A4.414,4.414,0,0,0,362,177.93l.251-.087v-1.8l-1.615.153a1.052,1.052,0,0,0-.709.284A1,1,0,0,0,359.707,177.177Z" transform="translate(-313.365 -170.926)" fill="#040505"/>
        <path id="Path_12063" data-name="Path 12063" d="M377.063,178.759h-.818V173.3h.807v.382a3.487,3.487,0,0,1,1.691-.491,1.613,1.613,0,0,1,1.467.589,4.166,4.166,0,0,1,.376,2.095v2.88h-.807V175.9a3.691,3.691,0,0,0-.224-1.555.983.983,0,0,0-.955-.42,2.841,2.841,0,0,0-.736.1,3.715,3.715,0,0,0-.595.2l-.207.1Z" transform="translate(-324.928 -170.926)" fill="#040505"/>
        <path id="Path_12064" data-name="Path 12064" d="M395.5,170.911H393.77v2.608a3.523,3.523,0,0,0,.136,1.232q.136.295.649.295l.971-.066.054.677a7.467,7.467,0,0,1-1.113.12,1.426,1.426,0,0,1-1.178-.415,2.7,2.7,0,0,1-.327-1.582v-2.869h-.775V170.2h.775v-1.669h.807V170.2H395.5Z" transform="translate(-335.537 -167.824)" fill="#040505"/>
        <path id="Path_12065" data-name="Path 12065" d="M403.86,188.844l.5-2.509h.905l-.731,2.509Z" transform="translate(-343.303 -179.669)" fill="#040505"/>
        <path id="Path_12066" data-name="Path 12066" d="M419.967,167.262h2.738a2.6,2.6,0,0,1,1.685.463,1.781,1.781,0,0,1,.562,1.456,2.108,2.108,0,0,1-.246,1.108,1.668,1.668,0,0,1-.725.627,1.7,1.7,0,0,1,1.2,1.778,1.986,1.986,0,0,1-.6,1.625,2.679,2.679,0,0,1-1.735.491h-2.88Zm2.705.741h-1.865v2.608h1.942a1.365,1.365,0,0,0,1.02-.333,1.391,1.391,0,0,0,.322-1,1.226,1.226,0,0,0-.344-.971A1.607,1.607,0,0,0,422.672,168Zm.087,3.339h-1.953v2.727h2.007a1.772,1.772,0,0,0,1.129-.311,1.336,1.336,0,0,0,.388-1.1,1.415,1.415,0,0,0-.158-.7.919.919,0,0,0-.42-.4A2.374,2.374,0,0,0,422.76,171.342Z" transform="translate(-354.021 -166.978)" fill="#6b6b6b"/>
        <path id="Path_12067" data-name="Path 12067" d="M442.858,178.082l.317-.033.022.644a15.646,15.646,0,0,1-2.127.174,1.917,1.917,0,0,1-1.669-.682,3.658,3.658,0,0,1-.491-2.122q0-2.869,2.28-2.869a2.085,2.085,0,0,1,1.647.617,2.87,2.87,0,0,1,.546,1.936l-.044.622h-3.6a2.236,2.236,0,0,0,.327,1.342,1.338,1.338,0,0,0,1.14.436Q442.018,178.148,442.858,178.082Zm-.294-2.367a2.371,2.371,0,0,0-.322-1.419,1.245,1.245,0,0,0-1.047-.414,1.343,1.343,0,0,0-1.091.436,2.2,2.2,0,0,0-.376,1.4Z" transform="translate(-366.625 -170.926)" fill="#6b6b6b"/>
        <path id="Path_12068" data-name="Path 12068" d="M464.968,167.645q-1.636,0-1.637,1.233a1.064,1.064,0,0,0,.376.944,5.012,5.012,0,0,0,1.527.512,3.886,3.886,0,0,1,1.631.666,1.682,1.682,0,0,1,.48,1.347q0,2.324-2.411,2.324a13.482,13.482,0,0,1-2-.185l-.393-.055.087-.7a18.751,18.751,0,0,0,2.258.2q1.615,0,1.615-1.516a1.029,1.029,0,0,0-.355-.878,3.444,3.444,0,0,0-1.325-.452,4.465,4.465,0,0,1-1.811-.7,1.755,1.755,0,0,1-.535-1.445q0-2.029,2.433-2.029a13.369,13.369,0,0,1,1.909.164l.37.055-.076.709A20.519,20.519,0,0,0,464.968,167.645Z" transform="translate(-382.31 -166.739)" fill="#040505"/>
        <path id="Path_12069" data-name="Path 12069" d="M484.168,178.082l.317-.033.022.644a15.642,15.642,0,0,1-2.127.174,1.918,1.918,0,0,1-1.67-.682,3.664,3.664,0,0,1-.491-2.122q0-2.869,2.28-2.869a2.087,2.087,0,0,1,1.648.617,2.87,2.87,0,0,1,.545,1.936l-.044.622h-3.6a2.233,2.233,0,0,0,.328,1.342,1.336,1.336,0,0,0,1.14.436Q483.328,178.148,484.168,178.082Zm-.294-2.367a2.371,2.371,0,0,0-.322-1.419,1.245,1.245,0,0,0-1.047-.414,1.341,1.341,0,0,0-1.091.436,2.2,2.2,0,0,0-.376,1.4Z" transform="translate(-394.113 -170.926)" fill="#040505"/>
        <path id="Path_12070" data-name="Path 12070" d="M498.985,173.2a9.423,9.423,0,0,1,1.222.131l.262.033-.033.666a12.78,12.78,0,0,0-1.288-.1,1.5,1.5,0,0,0-1.26.442,2.876,2.876,0,0,0-.333,1.637,3.2,3.2,0,0,0,.31,1.664,1.46,1.46,0,0,0,1.293.469l1.288-.1.032.676a11.222,11.222,0,0,1-1.516.153,2.066,2.066,0,0,1-1.762-.654,3.808,3.808,0,0,1-.486-2.209,3.459,3.459,0,0,1,.524-2.182A2.157,2.157,0,0,1,498.985,173.2Z" transform="translate(-405.09 -170.926)" fill="#040505"/>
        <path id="Path_12071" data-name="Path 12071" d="M514.91,173.522h.818v5.455h-.818v-.382a3.123,3.123,0,0,1-1.614.491,1.623,1.623,0,0,1-1.478-.578,4.348,4.348,0,0,1-.366-2.138v-2.847h.818v2.836a4.014,4.014,0,0,0,.207,1.593q.207.4.938.4a2.7,2.7,0,0,0,.731-.1,3.349,3.349,0,0,0,.567-.2l.2-.1Z" transform="translate(-414.895 -171.144)" fill="#040505"/>
        <path id="Path_12072" data-name="Path 12072" d="M528.929,178.738v-5.455h.807v.742a5.316,5.316,0,0,1,2-.862v.829a5.882,5.882,0,0,0-.954.273,6.306,6.306,0,0,0-.759.328l-.273.142v4Z" transform="translate(-426.525 -170.905)" fill="#040505"/>
        <path id="Path_12073" data-name="Path 12073" d="M543.115,178.082l.316-.033.022.644a15.635,15.635,0,0,1-2.127.174,1.916,1.916,0,0,1-1.669-.682,3.661,3.661,0,0,1-.491-2.122q0-2.869,2.28-2.869a2.085,2.085,0,0,1,1.647.617,2.87,2.87,0,0,1,.546,1.936l-.044.622H540a2.238,2.238,0,0,0,.327,1.342,1.337,1.337,0,0,0,1.14.436Q542.275,178.148,543.115,178.082Zm-.294-2.367a2.371,2.371,0,0,0-.322-1.419,1.246,1.246,0,0,0-1.048-.414,1.343,1.343,0,0,0-1.091.436,2.2,2.2,0,0,0-.376,1.4Z" transform="translate(-433.336 -170.926)" fill="#040505"/>
      </g>
      <path id="Path_12074" data-name="Path 12074" d="M227.19,71.844c3.908.979,8.4,3.438,8.114,7.126s-3.744,8.065-16.244,2.656L217.5,85.15a19.332,19.332,0,0,0,16.08,2.432c8.678-2.4,8.914-15.061-.061-17.889-4.614-1.454-7.862-2.488-9.221-4.119a4.856,4.856,0,0,1,.613-6.582c2.91-2.172,10.171-.89,12.384.708l1.6-3.4s-14.836-6.884-19.144,1.222C219.751,57.521,214.01,68.543,227.19,71.844Z" transform="translate(0 0)" fill="#292929"/>
      <path id="Path_12075" data-name="Path 12075" d="M512.984,95.792c2.878.721,6.185,2.531,5.974,5.246S516.2,106.975,507,102.992l-1.146,2.595a14.233,14.233,0,0,0,11.838,1.79c6.389-1.77,6.562-11.088-.045-13.17-3.4-1.07-5.788-1.832-6.789-3.032a3.575,3.575,0,0,1,.451-4.846c2.142-1.6,7.488-.655,9.117.522l1.177-2.5s-10.923-5.068-14.095.9C507.508,85.246,503.281,93.36,512.984,95.792Z" transform="translate(-191.868 -19.142)" fill="#292929"/>
    </g>
    <g id="seers-owl" transform="translate(2121 -262)">
      <path id="Path_1" data-name="Path 1" d="M-784.759,545.4a15.031,15.031,0,0,1,3.556-9.73,17.683,17.683,0,0,1-4.55-3.289c-12.924-13.823-1.988-26.927-1.988-26.927-7.141,3.076-14.1,12.2-14.1,12.2.271,6.146,2.169,8.948,2.169,8.948-2.982.091-4.609-4.247-4.609-4.247-.362.452-1.627,6.507-1.627,6.507,1.175,2.531,4.789,5.423,4.789,5.423-3.615,1.175-5.151-1.536-5.151-1.536-.271.9.542,6.417.542,6.417.452,1.536,4.158,4.885,4.158,4.885a3.863,3.863,0,0,1-2.531.091,30.382,30.382,0,0,0,7.14,10.755,25.668,25.668,0,0,0,13.474-3.418A15.031,15.031,0,0,1-784.759,545.4Z" transform="translate(806.325 -505.455)" fill="#3b6ef8"/>
      <path id="Path_2" data-name="Path 2" d="M-726.661,565.529s-10.213-6.507-19.522.542c0,0,6.326,5.694,8.134,10.484,0,0-.542,3.616,1.894,5.781a6.8,6.8,0,0,0,1.536-5.965S-731.181,569.051-726.661,565.529Z" transform="translate(773.081 -537.148)" fill="#3b6ef8"/>
      <circle id="Ellipse_1" data-name="Ellipse 1" cx="1.265" cy="1.265" r="1.265" transform="translate(29.292 37.778)" fill="#3b6ef8"/>
      <circle id="Ellipse_2" data-name="Ellipse 2" cx="1.265" cy="1.265" r="1.265" transform="translate(41.9 37.778)" fill="#3b6ef8"/>
      <path id="Path_3" data-name="Path 3" d="M-697.722,549.945s2.891-2.621,5.513-8.586c0,0-1.536-8.857-5.965-14.28,0,0,1.627,11.93-7.682,18.708,0,0,.092.1.25.276a15.093,15.093,0,0,1,1.28,21.306,15.1,15.1,0,0,1-4.212,3.315l1.235,1.31s14.1-7.592,15.093-24.674C-692.206,547.323-694.375,551.119-697.722,549.945Z" transform="translate(752.272 -517.408)" fill="#3b6ef8"/>
      <path id="Path_4" data-name="Path 4" d="M-758.092,617.36a15.1,15.1,0,0,1-13.824-9.028,25.073,25.073,0,0,1-13.47,3.426,31.273,31.273,0,0,0,35.609,5.152l-1.235-1.31A15.025,15.025,0,0,1-758.092,617.36Z" transform="translate(794.751 -562.321)" fill="#3cd08c"/>
    </g>
  </g>
</svg>
